<mxfile host="app.diagrams.net" modified="2023-09-15T10:33:41.650Z" agent="Mozilla/5.0 (Windows NT 10.0; Win64; x64) AppleWebKit/537.36 (KHTML, like Gecko) Chrome/116.0.0.0 Safari/537.36" etag="2tVc78N9doEeTpg0HvIS" version="21.6.6" type="github">
  <diagram name="第 1 页" id="mubE8h0BaO2KI2mDIzUp">
    <mxGraphModel dx="1318" dy="681" grid="1" gridSize="10" guides="1" tooltips="1" connect="1" arrows="1" fold="1" page="1" pageScale="1" pageWidth="1169" pageHeight="827" math="0" shadow="0">
      <root>
        <mxCell id="0" />
        <mxCell id="1" parent="0" />
        <mxCell id="f5jG2zSef024Dq7Fk5sR-24" value="" style="sketch=0;html=1;aspect=fixed;strokeColor=#457B9D;shadow=0;fillColor=#A8DADC;verticalAlign=top;labelPosition=center;verticalLabelPosition=bottom;shape=mxgraph.gcp2.a7_power;hachureGap=4;jiggle=2;curveFitting=1;fontFamily=Architects Daughter;fontSource=https%3A%2F%2Ffonts.googleapis.com%2Fcss%3Ffamily%3DArchitects%2BDaughter;fontSize=20;fontColor=#1D3557;labelBackgroundColor=none;" vertex="1" parent="1">
          <mxGeometry x="60" y="100" width="50" height="50" as="geometry" />
        </mxCell>
        <mxCell id="f5jG2zSef024Dq7Fk5sR-27" value="&lt;font style=&quot;font-size: 18px;&quot;&gt;电源开关&lt;/font&gt;" style="rounded=1;whiteSpace=wrap;html=1;sketch=1;hachureGap=4;jiggle=2;curveFitting=1;strokeColor=#457B9D;fontFamily=Architects Daughter;fontSource=https%3A%2F%2Ffonts.googleapis.com%2Fcss%3Ffamily%3DArchitects%2BDaughter;fontSize=20;fontColor=#1D3557;fillColor=#A8DADC;" vertex="1" parent="1">
          <mxGeometry x="37.5" y="160" width="95" height="40" as="geometry" />
        </mxCell>
      </root>
    </mxGraphModel>
  </diagram>
</mxfile>
